PathFileType	4	(X/Y/Z)	Patient4_TMGait_0pt8_01_right_09.trc.trc
DataRate	CameraRate	NumFrames	NumMarkers	Units	OrigDataRate	OrigDataStartFrame	OrigNumFrames
89.743589743590	89.743589743590	5	33	mm	89.743589743590	71	       141
Frame#	Time	Sacral			L.Shoulder			Chest			R.Shoulder			Neck			R.ASIS			L.ASIS			R.Thigh.Superior			R.Thigh.Lateral			R.Thigh.Inferior			R.Patella			L.Thigh.Superior			L.Thigh.Lateral			L.Thigh.Inferior			L.Patella			L.Shank.Superior			L.Shank.Lateral			L.Shank.Inferior			R.Shank.Superior			R.Shank.Lateral			R.Shank.Inferior			R.Heel			R.Midfoot.Superior			R.Midfoot.Lateral			R.Toe			L.Heel			L.Midfoot.Lateral			L.Midfoot.Superior			L.Toe			L.Elbow			L.Wrist			R.Elbow			R.Wrist			
		X1	Y1	Z1	X2	Y2	Z2	X3	Y3	Z3	X4	Y4	Z4	X5	Y5	Z5	X6	Y6	Z6	X7	Y7	Z7	X8	Y8	Z8	X9	Y9	Z9	X10	Y10	Z10	X11	Y11	Z11	X12	Y12	Z12	X13	Y13	Z13	X14	Y14	Z14	X15	Y15	Z15	X16	Y16	Z16	X17	Y17	Z17	X18	Y18	Z18	X19	Y19	Z19	X20	Y20	Z20	X21	Y21	Z21	X22	Y22	Z22	X23	Y23	Z23	X24	Y24	Z24	X25	Y25	Z25	X26	Y26	Z26	X27	Y27	Z27	X28	Y28	Z28	X29	Y29	Z29	X30	Y30	Z30	X31	Y31	Z31	X32	Y32	Z32	X33	Y33	Z33	

71	10.620000000000	860.841346298063	998.920496942932	524.318408225066	1027.082811775526	1416.324491275591	325.277425486263	1143.002322195872	1348.106196748010	478.222162486494	1076.579342105614	1426.906732925985	657.106448860124	1026.174954562332	1479.916264367354	481.767571188084	1087.986399436019	928.716727633088	634.108003845141	1065.443606351872	941.418498814984	357.245738277124	1073.523649262974	714.185765457249	609.849324349844	960.232993504916	627.731961466786	669.585331783912	1017.436636517202	557.889457100387	591.653910889845	993.530721701727	474.769344673830	595.942672110979	1139.102540959539	765.313714092555	393.131547506618	1098.230852450314	636.722930001598	307.419469495583	1201.824345934474	581.033468756083	372.342974129639	1231.447908544914	518.634617298226	368.928555118434	1218.818825088234	446.211323447247	356.970441822967	1160.887801824536	312.976576501342	305.114333257837	1253.564997873439	219.187455399108	360.507548525291	952.581165700165	393.231979467707	601.596749474582	865.371739124292	300.276402632345	659.246223170809	895.957676952461	201.069879317365	596.916826115449	746.461963242971	43.569866140314	557.884395963699	915.747871697197	96.101885994984	603.230361367018	824.833159962996	36.488977524399	636.587102996763	1033.518510951619	41.648157012305	639.190378427055	1179.184276073706	39.862859036487	397.795251618852	1255.681217004119	43.686038335258	319.913418598401	1324.399512135191	121.648163678297	341.817154988264	1459.109880781493	93.526430372335	320.488338828109	885.113872276396	1089.259225243503	245.509149038597	828.026437785953	837.890573712621	276.387405721208	1219.868353638191	1123.632601078995	779.829149483262	1464.255338890353	1161.351844633086	719.893146439642	
72	10.631142857143	861.371097124289	997.377059918923	521.452224102152	1027.479058720549	1414.998749391252	323.342824860128	1143.145874977934	1346.875850214224	476.525872564363	1076.015830724297	1425.579121375494	655.181826798497	1026.043609452347	1478.391642289897	479.927319670626	1088.319554348803	926.809051865419	631.986272022616	1066.811329874639	939.885563676706	355.208655139452	1073.222229091190	712.164043249741	607.762421847529	959.506571055572	626.212645984826	667.619440710198	1016.183747811426	555.966337624648	589.612273464032	991.359382306856	472.488970740043	593.752257493322	1140.853305375306	763.821652694821	391.914724326950	1098.780254412513	634.590703226829	307.694533690533	1202.494643763743	579.278387970613	372.244896884827	1230.983888796252	515.869054494455	369.706936770806	1217.921442547339	443.033077740110	357.809642916942	1158.321148744015	310.428680016742	306.661509650063	1249.549739434820	215.809882392134	362.676291871540	949.163883224966	391.349518197006	599.787322143991	860.756144202407	299.933692434986	658.167036980691	889.181101937953	200.119148906745	595.949122585078	737.550506344023	43.875764480558	557.908658398570	906.916483487939	96.086742874379	602.985857911416	815.956027768495	36.594336708813	636.545522648513	1024.631178352854	41.367800115754	639.262341125291	1172.170551170085	38.812421042916	399.896358172001	1248.569184721824	41.942009072144	321.838567725436	1319.027028086088	117.551700772063	344.869226310025	1453.053093223547	86.351963674100	323.018058590786	882.136512251024	1089.991860353008	244.161638864116	821.030353220923	839.643055092289	276.081084824245	1222.488602251760	1124.252333273031	777.073204385406	1464.006210253361	1173.124699373992	716.047231335484	
73	10.642285714286	861.981018662572	995.869681005761	518.441251116173	1027.898826683798	1413.768312045159	321.302191919757	1143.307403935622	1345.797332915588	474.750358124581	1075.398430740273	1424.348427144592	653.196087489633	1025.933099247420	1476.987674528199	477.983774581435	1088.773204856966	924.998895584331	629.767189240077	1068.312379056617	938.521142433476	353.090479921404	1073.270295874502	710.252262069199	605.649672829960	959.112405718032	624.720077726468	665.493605573062	1015.442971920185	554.051293241903	587.547687903849	989.714483292689	470.101021647089	591.500541322371	1142.978590289576	762.559714072750	390.501939330354	1099.633527373354	632.777208431377	307.837870758435	1203.535240038231	577.804265792674	372.014199635908	1230.763702516290	513.233381423370	370.368621574519	1217.182392530178	439.975233077809	358.505614625844	1155.702538157243	308.169594734304	307.817667283495	1245.056780321225	212.450855094875	364.602278752406	946.152006116706	389.482007750990	597.912869677941	856.401569224592	299.747916696719	657.014196514305	882.591494714846	199.297012920240	594.974131002131	728.667970787735	44.485966816947	557.967622240295	898.218932903569	96.146582596207	602.774167112089	807.132134001318	36.845046973133	636.504730005579	1015.802810736736	41.029815635299	639.339411857404	1163.923105057472	38.049160585204	401.591315169049	1240.273385570654	40.333453552432	323.376203131379	1312.717442907146	113.341060575742	347.674419809755	1445.972340902293	78.643625451455	325.338386725439	879.860092676356	1090.487333666206	242.646353347038	815.343335679235	841.043402131863	275.356997439359	1224.501347950199	1124.600559971049	774.333030549532	1462.821429825394	1183.785082353297	712.376940916398	
74	10.653428571429	862.665009388634	994.464632551573	515.335630452951	1028.341027113739	1412.693680929793	319.176016106531	1143.490166926257	1344.922249032851	472.910393447927	1074.760874487304	1423.276910149775	651.172045196695	1025.850776012380	1475.772160992663	475.956637852101	1089.330477044303	923.349302626303	627.456464059183	1069.892787296523	937.404959222054	350.892351851650	1073.617205786950	708.518774712889	603.514409849837	959.016766503887	623.323223993448	663.225990736262	1015.197533805374	552.212884833953	585.485312784384	988.621305227229	467.648933414138	589.264291076553	1145.359285805854	761.579902570677	388.898487243426	1100.763248780014	631.385409254364	307.726290304608	1204.854037567418	576.659842184800	371.595985136130	1230.755023103636	510.876546560188	370.818825200744	1216.624746755180	437.200488816166	358.980544881309	1153.228745087193	306.306735313931	308.455345152442	1240.343249063949	209.318785949366	366.185426623480	943.544057002489	387.693267942185	596.032626147087	852.297131677961	299.796615836908	655.821909678424	876.206349588781	198.682976243747	594.036287021628	719.829893611878	45.520567623871	558.078180475355	889.690686434626	96.293555414432	602.618861905249	798.370712419448	37.301669586929	636.479141109273	1007.034226573585	40.649631068767	639.413330473972	1154.949556887080	37.578207002827	402.830297188073	1231.313553760320	38.949052828167	324.495745780754	1305.794600251285	109.329021660892	350.102364156982	1438.257021832211	71.051489759988	327.381387596888	878.330912827862	1090.742355637138	240.958597745219	811.019832019095	842.058281255112	274.175011464642	1225.845423178691	1124.648565516055	771.635157378582	1460.777371837492	1193.251100641079	708.910406523728	
75	10.664571428571	863.420794474573	993.230985672069	512.183574500808	1028.799450079728	1411.841462467907	316.989780047310	1143.694241948709	1344.304033782594	471.022714081888	1074.139493787729	1422.430394650993	649.132637353940	1025.799657283218	1474.815491931793	473.870189075133	1089.969557032702	921.930781223054	625.049008320824	1071.498573209527	936.616494116846	348.606065798720	1074.217005930140	707.041305880407	601.346319029397	959.215343945517	622.089315547103	660.838882519347	1015.459216918045	550.527466577143	583.444766445467	988.140466363743	465.184036236727	587.132582865376	1147.869963132485	760.941595317115	387.112986464009	1102.141876086589	630.496365603028	307.261160358902	1206.346494365790	575.879316614214	370.944433976979	1230.912108896249	508.917522269790	370.975735481197	1216.230877582074	434.827616724461	359.186908836242	1150.999041569155	304.920129388851	308.507084979536	1235.556724341301	206.573230882555	367.370684357605	941.372003797976	386.044370720966	594.215707788351	848.466717939837	300.160686545384	654.630726230933	870.068127785325	198.357904758247	593.185211648198	711.066812386596	47.119491932385	558.256808251145	881.377648823003	96.538255381898	602.546377907270	789.686696977278	38.035691615237	636.483708034192	998.321985127375	40.244370505117	639.473934657951	1145.642985167502	37.370633548268	403.618282650610	1222.075781080185	37.845317521411	325.207340431093	1298.467273308535	105.775948116523	352.063024946897	1430.175746772517	64.152218246802	329.077989546113	877.591071914115	1090.768231116734	239.095140332257	808.114983832407	842.671437623898	272.508562184089	1226.450497382169	1124.375144690865	769.002805402351	1457.947138016348	1201.447944348701	705.672031877064	
